<svg width="191" height="31" viewBox="0 0 191 31" fill="none" xmlns="http://www.w3.org/2000/svg">
<path d="M23.2259 16.6281L16.561 28.043L9.89611 16.6281H23.2259ZM25.0114 15.6079H8.10339L16.561 30.062L25.0114 15.6079Z" fill="white"/>
<path d="M34.8137 2.43066L41.4786 13.8455H28.1488L34.8137 2.43066ZM34.8137 0.390259L26.3561 14.8443H43.2713L34.8137 0.390259Z" fill="white"/>
<path d="M0 0.390259L7.09143 13.1749L14.8406 0.711284L0 0.390259Z" fill="#4CAF4F"/>
<path d="M16.5612 1.51013L23.9997 14.2234H9.1084L16.5612 1.51013Z" fill="#4CAF4F"/>
<path d="M25.9152 16.9991L33.3608 30.0621H18.1154L25.6838 16.9991H25.9152Z" fill="#4CAF4F"/>
<path d="M27.5271 16.2072L34.8137 29.0702L42.2014 16.2072H27.5271Z" fill="#4CAF4F"/>
<path d="M74.2197 2.45361V27.6296H69.6222L58.6691 11.784H58.4847V27.6296H53.1619V2.45361H57.8332L68.7002 18.287H68.9215V2.45361H74.2197Z" fill="white"/>
<path d="M87.1243 27.9984C85.182 27.9984 83.5102 27.6051 82.1088 26.8183C80.7156 26.0234 79.642 24.9006 78.888 23.45C78.134 21.9913 77.757 20.2661 77.757 18.2747C77.757 16.3324 78.134 14.6278 78.888 13.1608C79.642 11.6938 80.7033 10.5506 82.0719 9.73106C83.4487 8.91153 85.0632 8.50176 86.9153 8.50176C88.161 8.50176 89.3206 8.70255 90.3942 9.10412C91.476 9.49749 92.4185 10.0917 93.2216 10.8866C94.033 11.6815 94.664 12.6814 95.1147 13.8861C95.5655 15.0826 95.7908 16.484 95.7908 18.0903V19.5286H79.8469V16.2832H90.8614C90.8614 15.5292 90.6975 14.8613 90.3696 14.2795C90.0418 13.6976 89.587 13.2428 89.0051 12.9149C88.4315 12.5789 87.7635 12.4109 87.0014 12.4109C86.2064 12.4109 85.5016 12.5953 84.887 12.9641C84.2805 13.3247 83.8052 13.8123 83.461 14.427C83.1168 15.0334 82.9406 15.7095 82.9324 16.4553V19.5409C82.9324 20.4751 83.1045 21.2824 83.4487 21.9626C83.8011 22.6428 84.2969 23.1673 84.9361 23.5361C85.5754 23.9049 86.3335 24.0893 87.2104 24.0893C87.7922 24.0893 88.3249 24.0073 88.8084 23.8434C89.292 23.6795 89.7058 23.4336 90.05 23.1058C90.3942 22.778 90.6565 22.3764 90.8368 21.9011L95.6802 22.2207C95.4344 23.3845 94.9303 24.4007 94.1682 25.2694C93.4142 26.1299 92.439 26.8019 91.2424 27.2854C90.0541 27.7608 88.6814 27.9984 87.1243 27.9984Z" fill="white"/>
<path d="M103.247 8.74762L106.713 15.349L110.266 8.74762H115.638L110.167 18.1886L115.785 27.6296H110.438L106.713 21.1021L103.05 27.6296H97.6409L103.247 18.1886L97.8376 8.74762H103.247Z" fill="white"/>
<path d="M126.603 27.9984C124.669 27.9984 123.005 27.5887 121.612 26.7691C120.227 25.9414 119.162 24.7941 118.416 23.3271C117.679 21.8601 117.31 20.1719 117.31 18.2624C117.31 16.3283 117.683 14.6319 118.428 13.1731C119.182 11.7061 120.252 10.5629 121.637 9.74335C123.022 8.91562 124.669 8.50176 126.579 8.50176C128.226 8.50176 129.668 8.80089 130.906 9.39915C132.143 9.99741 133.123 10.8374 133.844 11.9192C134.565 13.001 134.962 14.2713 135.036 15.73H130.094C129.955 14.7876 129.586 14.0295 128.988 13.4558C128.398 12.874 127.624 12.583 126.665 12.583C125.853 12.583 125.144 12.8043 124.538 13.2469C123.94 13.6812 123.473 14.3163 123.137 15.1523C122.801 15.9882 122.633 17.0003 122.633 18.1886C122.633 19.3933 122.796 20.4178 123.124 21.2619C123.46 22.106 123.932 22.7493 124.538 23.1919C125.144 23.6344 125.853 23.8557 126.665 23.8557C127.263 23.8557 127.8 23.7328 128.275 23.4869C128.759 23.241 129.156 22.8845 129.467 22.4174C129.787 21.9421 129.996 21.3725 130.094 20.7087H135.036C134.954 22.1511 134.561 23.4213 133.856 24.5195C133.159 25.6095 132.197 26.4618 130.967 27.0765C129.738 27.6911 128.283 27.9984 126.603 27.9984Z" fill="white"/>
<path d="M146.994 27.9984C145.052 27.9984 143.38 27.6051 141.979 26.8183C140.585 26.0234 139.512 24.9006 138.758 23.45C138.004 21.9913 137.627 20.2661 137.627 18.2747C137.627 16.3324 138.004 14.6278 138.758 13.1608C139.512 11.6938 140.573 10.5506 141.942 9.73106C143.319 8.91153 144.933 8.50176 146.785 8.50176C148.031 8.50176 149.191 8.70255 150.264 9.10412C151.346 9.49749 152.288 10.0917 153.092 10.8866C153.903 11.6815 154.534 12.6814 154.985 13.8861C155.435 15.0826 155.661 16.484 155.661 18.0903V19.5286H139.717V16.2832H150.731C150.731 15.5292 150.567 14.8613 150.24 14.2795C149.912 13.6976 149.457 13.2428 148.875 12.9149C148.301 12.5789 147.633 12.4109 146.871 12.4109C146.076 12.4109 145.372 12.5953 144.757 12.9641C144.15 13.3247 143.675 13.8123 143.331 14.427C142.987 15.0334 142.81 15.7095 142.802 16.4553V19.5409C142.802 20.4751 142.974 21.2824 143.319 21.9626C143.671 22.6428 144.167 23.1673 144.806 23.5361C145.445 23.9049 146.203 24.0893 147.08 24.0893C147.662 24.0893 148.195 24.0073 148.678 23.8434C149.162 23.6795 149.576 23.4336 149.92 23.1058C150.264 22.778 150.526 22.3764 150.707 21.9011L155.55 22.2207C155.304 23.3845 154.8 24.4007 154.038 25.2694C153.284 26.1299 152.309 26.8019 151.112 27.2854C149.924 27.7608 148.551 27.9984 146.994 27.9984Z" fill="white"/>
<path d="M164.315 16.7135V27.6296H159.078V8.74762H164.069V12.079H164.29C164.708 10.9808 165.409 10.1121 166.393 9.4729C167.376 8.82547 168.568 8.50176 169.97 8.50176C171.281 8.50176 172.424 8.7886 173.4 9.36227C174.375 9.93594 175.133 10.7555 175.674 11.8209C176.215 12.8781 176.485 14.1401 176.485 15.6071V27.6296H171.248V16.5414C171.256 15.3858 170.961 14.4843 170.363 13.8369C169.765 13.1813 168.941 12.8535 167.892 12.8535C167.187 12.8535 166.565 13.0051 166.024 13.3083C165.491 13.6115 165.073 14.0541 164.77 14.636C164.475 15.2096 164.323 15.9021 164.315 16.7135Z" fill="white"/>
<path d="M190.656 8.74762V12.6814H179.285V8.74762H190.656ZM181.866 4.2238H187.103V21.8274C187.103 22.3109 187.177 22.6879 187.324 22.9583C187.472 23.2206 187.677 23.405 187.939 23.5115C188.209 23.618 188.521 23.6713 188.873 23.6713C189.119 23.6713 189.365 23.6508 189.611 23.6098C189.857 23.5607 190.045 23.5238 190.176 23.4992L191 27.3961C190.738 27.478 190.369 27.5723 189.894 27.6788C189.418 27.7935 188.841 27.8632 188.16 27.8878C186.898 27.937 185.792 27.769 184.841 27.3838C183.899 26.9986 183.165 26.4003 182.641 25.589C182.116 24.7777 181.858 23.7533 181.866 22.5158V4.2238Z" fill="white"/>
</svg>
